<?xml version="1.0" encoding="iso-8859-1"?>
<!-- Generator: Adobe Illustrator 19.0.0, SVG Export Plug-In . SVG Version: 6.00 Build 0)  -->
<svg version="1.1" id="Capa_1" xmlns="http://www.w3.org/2000/svg" xmlns:xlink="http://www.w3.org/1999/xlink" x="0px" y="0px"
	 viewBox="0 0 480 480" style="enable-background:new 0 0 480 480;" xml:space="preserve">
<g>
	<g>
		<path d="M472,160h-80V72c0-2.12-0.84-4.16-2.344-5.656L325.664,2.352c-0.008-0.008-0.024-0.016-0.032-0.024
			c-0.664-0.664-1.448-1.144-2.272-1.528c-0.24-0.112-0.496-0.176-0.752-0.264c-0.688-0.24-1.384-0.376-2.112-0.424
			C320.328,0.088,320.176,0,320,0H160c-0.168,0-0.312,0.088-0.48,0.096c-0.736,0.048-1.448,0.192-2.144,0.432
			c-0.248,0.088-0.496,0.152-0.728,0.264c-0.824,0.384-1.608,0.872-2.272,1.536c-0.008,0.008-0.024,0.016-0.032,0.024L90.352,66.344
			C88.84,67.84,88,69.88,88,72v88H8c-4.424,0-8,3.584-8,8v272c0,22.056,17.944,40,40,40h400c22.056,0,40-17.944,40-40V168
			C480,163.584,476.424,160,472,160z M328,72V27.312l48,48V160h-48V72z M168,16h144v48H168V16z M168,80h144v80H168V80z M104,75.312
			l48-48V72v88h-48V75.312z M464,440c0,13.232-10.768,24-24,24H40c-13.232,0-24-10.768-24-24V176h80h64h160h64h80V440z"/>
	</g>
</g>
<g>
	<g>
		<path d="M349.512,243.168c-0.544-3.408-3.208-6.072-6.608-6.624c-2.344-0.376-33.976-5.264-70.8-0.424
			c-55.208-39.248-139.392-26.224-143.016-25.64c-3.4,0.552-6.064,3.216-6.616,6.624c-0.584,3.616-13.608,87.8,25.64,143.016
			c-4.832,36.816,0.048,68.456,0.424,70.784c0.552,3.4,3.216,6.072,6.616,6.624c1.576,0.256,16.44,2.56,37.248,2.56
			c34.832,0,86.304-6.48,119.752-39.92C365.568,346.752,350.192,247.376,349.512,243.168z M280,251.488
			c16.264-1.696,31.136-1.528,42.088-0.888L280,292.688V251.488z M255.296,255.552c2.24-0.52,4.48-1.024,6.712-1.448
			c0.656-0.128,1.336-0.232,1.992-0.352v54.928l-24,24v-72.784c0.456-0.152,0.904-0.336,1.36-0.488
			c1.12-0.368,2.256-0.712,3.4-1.064c2.248-0.664,4.504-1.312,6.76-1.888C252.76,256.136,254.032,255.848,255.296,255.552z
			 M161.816,309.568c-3.936,8.776-6.952,17.856-9.232,26.944c-20.432-40.96-16.944-93.576-15.056-110.992
			c17.416-1.896,69.992-5.424,111.008,15.048c-14.464,3.632-28.936,9.12-42.104,17.24c-0.576,0.36-1.144,0.728-1.712,1.088
			c-1.648,1.056-3.28,2.152-4.88,3.296c-0.68,0.48-1.352,0.968-2.016,1.456c-1.512,1.128-2.992,2.304-4.448,3.52
			c-0.576,0.48-1.176,0.944-1.744,1.432c-1.952,1.688-3.872,3.44-5.728,5.288c-1.848,1.848-3.592,3.752-5.272,5.704
			c-0.512,0.592-1,1.224-1.504,1.832c-1.184,1.424-2.336,2.872-3.44,4.344c-0.52,0.696-1.024,1.408-1.528,2.112
			c-1.104,1.552-2.168,3.128-3.192,4.72c-0.4,0.624-0.8,1.24-1.192,1.872c-2.968,4.824-5.584,9.816-7.888,14.92
			C161.864,309.448,161.84,309.512,161.816,309.568z M224,266.472v82.216l-24,24v-89.936c1.552-1.432,3.088-2.88,4.728-4.192
			c0.832-0.664,1.736-1.272,2.592-1.92c1.856-1.384,3.736-2.744,5.68-4c0.984-0.64,2.024-1.232,3.04-1.84
			c1.944-1.16,3.912-2.288,5.92-3.328C222.624,267.128,223.32,266.808,224,266.472z M165.048,356.024
			c0.36-2.232,0.728-4.456,1.152-6.624c0.328-1.664,0.704-3.336,1.08-5.008c0.416-1.832,0.84-3.648,1.296-5.424
			c0.48-1.832,1-3.664,1.544-5.488c0.456-1.536,0.928-3.064,1.424-4.552c0.64-1.936,1.336-3.856,2.064-5.768
			c0.504-1.336,1.024-2.656,1.56-3.952c0.816-1.952,1.688-3.88,2.6-5.792c0.576-1.208,1.152-2.408,1.76-3.576
			c0.992-1.912,2.064-3.776,3.168-5.624c0.432-0.72,0.856-1.448,1.304-2.152v86.632l-21.416,21.4
			C161.784,396.504,161.704,376.824,165.048,356.024z M172.104,423.208L195.312,400h91.784
			C249.96,425.16,197.216,425.04,172.104,423.208z M305.152,384h-93.84l24-24h85.28C316.544,368.616,311.448,376.72,305.152,384z
			 M326.928,344h-75.616l24-24h57.392C331.344,327.976,329.488,336.056,326.928,344z M334.848,304h-43.536l43.92-43.92
			C336.024,270.808,336.504,286.512,334.848,304z"/>
	</g>
</g>
<g>
	<g>
		<rect x="432" y="432" width="16" height="16"/>
	</g>
</g>
<g>
	<g>
		<rect x="400" y="432" width="16" height="16"/>
	</g>
</g>
<g>
	<g>
		<rect x="368" y="432" width="16" height="16"/>
	</g>
</g>
<g>
</g>
<g>
</g>
<g>
</g>
<g>
</g>
<g>
</g>
<g>
</g>
<g>
</g>
<g>
</g>
<g>
</g>
<g>
</g>
<g>
</g>
<g>
</g>
<g>
</g>
<g>
</g>
<g>
</g>
</svg>
